Metropolis-Bold.ufo
<glyph name="dollar" format="1">
  <advance width="646"/>
  <unicode hex="0024"/>
  <outline>
    <contour>
      <point x="374" y="-74" type="line"/>
      <point x="374" y="43" type="line"/>
      <point x="365" y="103" type="line"/>
      <point x="365" y="583" type="line"/>
      <point x="374" y="643" type="line"/>
      <point x="374" y="759" type="line"/>
      <point x="264" y="759" type="line"/>
      <point x="264" y="643" type="line"/>
      <point x="273" y="583" type="line"/>
      <point x="273" y="103" type="line"/>
      <point x="264" y="43" type="line"/>
      <point x="264" y="-74" type="line"/>
    </contour>
    <component base="S"/>
  </outline>
</glyph>
<glyph name="ampersand" format="1">
  <advance width="685"/>
  <unicode hex="0026"/>
  <outline>
    <contour>
      <point x="333" y="-12"/>
      <point x="395" y="10"/>
      <point x="449" y="46" type="curve"/>
      <point x="515" y="-22" type="line"/>
      <point x="668" y="46" type="line"/>
      <point x="566" y="158" type="line"/>
      <point x="601" y="203"/>
      <point x="631" y="254"/>
      <point x="659" y="307" type="curve"/>
      <point x="525" y="372" type="line"/>
      <point x="509" y="334"/>
      <point x="490" y="296"/>
      <point x="468" y="263" type="curve"/>
      <point x="455" y="277"/>
      <point x="442" y="292"/>
      <point x="429" y="306" type="curve" smooth="yes"/>
      <point x="418" y="320"/>
      <point x="405" y="334"/>
      <point x="392" y="349" type="curve"/>
      <point x="477" y="387"/>
      <point x="539" y="438"/>
      <point x="539" y="531" type="curve" smooth="yes"/>
      <point x="539" y="629"/>
      <point x="450" y="696"/>
      <point x="336" y="696" type="curve" smooth="yes"/>
      <point x="208" y="696"/>
      <point x="120" y="619"/>
      <point x="120" y="518" type="curve" smooth="yes"/>
      <point x="120" y="473"/>
      <point x="134" y="428"/>
      <point x="161" y="382" type="curve"/>
      <point x="76" y="343"/>
      <point x="20" y="284"/>
      <point x="20" y="191" type="curve" smooth="yes"/>
      <point x="20" y="62"/>
      <point x="121" y="-12"/>
      <point x="261" y="-12" type="curve" smooth="yes"/>
    </contour>
    <contour>
      <point x="246" y="129"/>
      <point x="211" y="158"/>
      <point x="211" y="205" type="curve" smooth="yes"/>
      <point x="211" y="230"/>
      <point x="222" y="253"/>
      <point x="246" y="271" type="curve"/>
      <point x="263" y="250"/>
      <point x="281" y="230"/>
      <point x="298" y="210" type="curve" smooth="yes"/>
      <point x="314" y="192"/>
      <point x="333" y="171"/>
      <point x="354" y="149" type="curve"/>
      <point x="332" y="137"/>
      <point x="310" y="129"/>
      <point x="288" y="129" type="curve" smooth="yes"/>
    </contour>
    <contour>
      <point x="297" y="468"/>
      <point x="289" y="490"/>
      <point x="289" y="513" type="curve" smooth="yes"/>
      <point x="289" y="545"/>
      <point x="310" y="567"/>
      <point x="340" y="567" type="curve" smooth="yes"/>
      <point x="367" y="567"/>
      <point x="387" y="548"/>
      <point x="387" y="520" type="curve" smooth="yes"/>
      <point x="387" y="484"/>
      <point x="362" y="460"/>
      <point x="317" y="439" type="curve"/>
    </contour>
  </outline>
</glyph>
<glyph name="quotesingle" format="1">
  <advance width="304"/>
  <unicode hex="0027"/>
  <outline>
    <contour>
      <point x="186" y="370" type="line"/>
      <point x="217" y="455"/>
      <point x="248" y="547"/>
      <point x="248" y="606" type="curve" smooth="yes"/>
      <point x="248" y="660"/>
      <point x="204" y="705"/>
      <point x="152" y="705" type="curve" smooth="yes"/>
      <point x="100" y="705"/>
      <point x="56" y="660"/>
      <point x="56" y="606" type="curve" smooth="yes"/>
      <point x="56" y="547"/>
      <point x="87" y="455"/>
      <point x="118" y="370" type="curve"/>
    </contour>
  </outline>
</glyph>
<glyph name="comma" format="1">
  <advance width="312"/>
  <unicode hex="002C"/>
  <outline>
    <contour>
      <point x="205" y="-128"/>
      <point x="273" y="-32"/>
      <point x="273" y="75" type="curve" smooth="yes"/>
      <point x="273" y="165"/>
      <point x="225" y="219"/>
      <point x="155" y="219" type="curve" smooth="yes"/>
      <point x="94" y="219"/>
      <point x="42" y="166"/>
      <point x="42" y="102" type="curve" smooth="yes"/>
      <point x="42" y="52"/>
      <point x="69" y="27"/>
      <point x="108" y="1" type="curve" smooth="yes"/>
      <point x="122" y="-8"/>
      <point x="131" y="-17"/>
      <point x="131" y="-32" type="curve" smooth="yes"/>
      <point x="131" y="-56"/>
      <point x="105" y="-81"/>
      <point x="63" y="-90" type="curve"/>
      <point x="108" y="-156" type="line"/>
    </contour>
  </outline>
</glyph>
<glyph name="slash" format="1">
  <advance width="493"/>
  <unicode hex="002F"/>
  <outline>
    <contour>
      <point x="171" y="-74" type="line"/>
      <point x="511" y="743" type="line"/>
      <point x="311" y="743" type="line"/>
      <point x="-29" y="-74" type="line"/>
    </contour>
  </outline>
</glyph>
<glyph name="five" format="1">
  <advance width="630"/>
  <unicode hex="0035"/>
  <outline>
    <contour>
      <point x="484" y="-13"/>
      <point x="597" y="82"/>
      <point x="597" y="234" type="curve" smooth="yes"/>
      <point x="597" y="376"/>
      <point x="490" y="454"/>
      <point x="370" y="454" type="curve" smooth="yes"/>
      <point x="318" y="454"/>
      <point x="276" y="439"/>
      <point x="244" y="416" type="curve"/>
      <point x="247" y="514" type="line"/>
      <point x="559" y="514" type="line"/>
      <point x="559" y="687" type="line"/>
      <point x="70" y="687" type="line"/>
      <point x="60" y="304" type="line"/>
      <point x="187" y="256" type="line"/>
      <point x="220" y="282"/>
      <point x="260" y="296"/>
      <point x="307" y="296" type="curve" smooth="yes"/>
      <point x="368" y="296"/>
      <point x="404" y="269"/>
      <point x="404" y="227" type="curve" smooth="yes"/>
      <point x="404" y="188"/>
      <point x="370" y="154"/>
      <point x="304" y="154" type="curve" smooth="yes"/>
      <point x="245" y="154"/>
      <point x="184" y="183"/>
      <point x="133" y="226" type="curve"/>
      <point x="23" y="90" type="line"/>
      <point x="92" y="26"/>
      <point x="183" y="-13"/>
      <point x="304" y="-13" type="curve" smooth="yes"/>
    </contour>
  </outline>
</glyph>
<glyph name="six" format="1">
  <advance width="656"/>
  <unicode hex="0036"/>
  <outline>
    <contour>
      <point x="499" y="-12"/>
      <point x="621" y="83"/>
      <point x="621" y="233" type="curve" smooth="yes"/>
      <point x="621" y="370"/>
      <point x="516" y="454"/>
      <point x="388" y="454" type="curve" smooth="yes"/>
      <point x="311" y="454"/>
      <point x="232" y="420"/>
      <point x="196" y="371" type="curve"/>
      <point x="217" y="181" type="line"/>
      <point x="220" y="250"/>
      <point x="265" y="299"/>
      <point x="326" y="299" type="curve" smooth="yes"/>
      <point x="376" y="299"/>
      <point x="421" y="272"/>
      <point x="421" y="225" type="curve" smooth="yes"/>
      <point x="421" y="183"/>
      <point x="385" y="152"/>
      <point x="331" y="152" type="curve" smooth="yes"/>
      <point x="247" y="152"/>
      <point x="231" y="202"/>
      <point x="231" y="331" type="curve" smooth="yes"/>
      <point x="231" y="458"/>
      <point x="279" y="530"/>
      <point x="374" y="530" type="curve" smooth="yes"/>
      <point x="426" y="530"/>
      <point x="464" y="514"/>
      <point x="505" y="484" type="curve"/>
      <point x="593" y="630" type="line"/>
      <point x="533" y="673"/>
      <point x="459" y="699"/>
      <point x="372" y="699" type="curve" smooth="yes"/>
      <point x="159" y="699"/>
      <point x="31" y="552"/>
      <point x="31" y="331" type="curve" smooth="yes"/>
      <point x="31" y="127"/>
      <point x="134" y="-12"/>
      <point x="344" y="-12" type="curve" smooth="yes"/>
    </contour>
  </outline>
</glyph>
<glyph name="seven" format="1">
  <advance width="606"/>
  <unicode hex="0037"/>
  <outline>
    <contour>
      <point x="316" y="0" type="line"/>
      <point x="581" y="541" type="line"/>
      <point x="581" y="687" type="line"/>
      <point x="39" y="687" type="line"/>
      <point x="39" y="514" type="line"/>
      <point x="358" y="514" type="line"/>
      <point x="98" y="0" type="line"/>
    </contour>
  </outline>
</glyph>
<glyph name="nine" format="1">
  <advance width="656"/>
  <unicode hex="0039"/>
  <outline>
    <contour>
      <point x="497" y="-12"/>
      <point x="621" y="135"/>
      <point x="621" y="356" type="curve" smooth="yes"/>
      <point x="621" y="560"/>
      <point x="522" y="700"/>
      <point x="312" y="700" type="curve" smooth="yes"/>
      <point x="157" y="700"/>
      <point x="35" y="604"/>
      <point x="35" y="454" type="curve" smooth="yes"/>
      <point x="35" y="317"/>
      <point x="140" y="233"/>
      <point x="268" y="233" type="curve" smooth="yes"/>
      <point x="329" y="233"/>
      <point x="382" y="255"/>
      <point x="421" y="294" type="curve"/>
      <point x="419" y="231"/>
      <point x="375" y="157"/>
      <point x="282" y="157" type="curve" smooth="yes"/>
      <point x="230" y="157"/>
      <point x="192" y="173"/>
      <point x="151" y="203" type="curve"/>
      <point x="63" y="57" type="line"/>
      <point x="123" y="14"/>
      <point x="197" y="-12"/>
      <point x="284" y="-12" type="curve" smooth="yes"/>
    </contour>
    <contour>
      <point x="280" y="388"/>
      <point x="235" y="415"/>
      <point x="235" y="462" type="curve" smooth="yes"/>
      <point x="235" y="504"/>
      <point x="271" y="535"/>
      <point x="325" y="535" type="curve" smooth="yes"/>
      <point x="388" y="535"/>
      <point x="421" y="497"/>
      <point x="423" y="446" type="curve"/>
      <point x="410" y="410"/>
      <point x="376" y="388"/>
      <point x="330" y="388" type="curve" smooth="yes"/>
    </contour>
  </outline>
</glyph>
<glyph name="equal" format="1">
  <advance width="609"/>
  <unicode hex="003D"/>
  <outline>
    <contour>
      <point x="554" y="382" type="line"/>
      <point x="554" y="531" type="line"/>
      <point x="55" y="531" type="line"/>
      <point x="55" y="382" type="line"/>
    </contour>
    <contour>
      <point x="554" y="148" type="line"/>
      <point x="554" y="297" type="line"/>
      <point x="55" y="297" type="line"/>
      <point x="55" y="148" type="line"/>
    </contour>
  </outline>
</glyph>
<glyph name="greater" format="1">
  <advance width="597"/>
  <unicode hex="003E"/>
  <outline>
    <contour>
      <point x="542" y="267" type="line"/>
      <point x="542" y="420" type="line"/>
      <point x="67" y="609" type="line"/>
      <point x="67" y="459" type="line"/>
      <point x="398" y="343" type="line"/>
      <point x="67" y="229" type="line"/>
      <point x="67" y="78" type="line"/>
    </contour>
  </outline>
</glyph>
<glyph name="A" format="1">
  <advance width="749"/>
  <unicode hex="0041"/>
  <outline>
    <contour>
      <point x="591" y="92" type="line"/>
      <point x="591" y="235" type="line"/>
      <point x="172" y="235" type="line"/>
      <point x="172" y="92" type="line"/>
    </contour>
    <component base="V" xOffset="749" yOffset="687" xScale="-1" yScale="-1"/>
    <contour>
      <point x="375" y="687" type="move" name="top"/>
    </contour>
  </outline>
</glyph>
<glyph name="B" format="1">
  <advance width="711"/>
  <unicode hex="0042"/>
  <outline>
    <contour>
      <point x="444" y="0" type="line" smooth="yes"/>
      <point x="584" y="0"/>
      <point x="684" y="75"/>
      <point x="684" y="185" type="curve" smooth="yes"/>
      <point x="684" y="261"/>
      <point x="637" y="326"/>
      <point x="557" y="360" type="curve"/>
      <point x="617" y="389"/>
      <point x="652" y="447"/>
      <point x="652" y="514" type="curve" smooth="yes"/>
      <point x="652" y="614"/>
      <point x="561" y="687"/>
      <point x="430" y="687" type="curve" smooth="yes"/>
      <point x="60" y="687" type="line"/>
      <point x="60" y="0" type="line"/>
    </contour>
    <contour>
      <point x="253" y="273" type="line"/>
      <point x="412" y="273" type="line" smooth="yes"/>
      <point x="454" y="273"/>
      <point x="484" y="250"/>
      <point x="484" y="218" type="curve" smooth="yes"/>
      <point x="484" y="186"/>
      <point x="454" y="163"/>
      <point x="412" y="163" type="curve" smooth="yes"/>
      <point x="253" y="163" type="line"/>
    </contour>
    <contour>
      <point x="253" y="524" type="line"/>
      <point x="383" y="524" type="line" smooth="yes"/>
      <point x="423" y="524"/>
      <point x="452" y="502"/>
      <point x="452" y="472" type="curve" smooth="yes"/>
      <point x="452" y="442"/>
      <point x="423" y="420"/>
      <point x="383" y="420" type="curve" smooth="yes"/>
      <point x="253" y="420" type="line"/>
    </contour>
  </outline>
</glyph>
<glyph name="E" format="1">
  <advance width="651"/>
  <unicode hex="0045"/>
  <outline>
    <contour>
      <point x="613" y="0" type="line"/>
      <point x="613" y="173" type="line"/>
      <point x="159" y="173" type="line"/>
      <point x="254" y="54" type="line"/>
      <point x="254" y="333" type="line"/>
      <point x="159" y="264" type="line"/>
      <point x="581" y="264" type="line"/>
      <point x="581" y="437" type="line"/>
      <point x="159" y="437" type="line"/>
      <point x="254" y="367" type="line"/>
      <point x="254" y="633" type="line"/>
      <point x="159" y="514" type="line"/>
      <point x="613" y="514" type="line"/>
      <point x="613" y="687" type="line"/>
      <point x="60" y="687" type="line"/>
      <point x="60" y="0" type="line"/>
    </contour>
    <contour>
      <point x="337" y="687" type="move" name="top"/>
    </contour>
  </outline>
</glyph>
<glyph name="I" format="1">
  <advance width="321"/>
  <unicode hex="0049"/>
  <outline>
    <contour>
      <point x="258" y="0" type="line"/>
      <point x="258" y="687" type="line"/>
      <point x="64" y="687" type="line"/>
      <point x="64" y="0" type="line"/>
    </contour>
    <contour>
      <point x="161" y="687" type="move" name="top"/>
    </contour>
  </outline>
</glyph>
<glyph name="L" format="1">
  <advance width="597"/>
  <unicode hex="004C"/>
  <outline>
    <contour>
      <point x="574" y="0" type="line"/>
      <point x="574" y="173" type="line"/>
      <point x="197" y="173" type="line"/>
      <point x="254" y="117" type="line"/>
      <point x="254" y="687" type="line"/>
      <point x="60" y="687" type="line"/>
      <point x="60" y="0" type="line"/>
    </contour>
    <contour>
      <point x="207" y="687" type="move" name="top"/>
    </contour>
  </outline>
</glyph>
<glyph name="M" format="1">
  <advance width="876"/>
  <unicode hex="004D"/>
  <outline>
    <contour>
      <point x="254" y="0" type="line"/>
      <point x="254" y="368" type="line"/>
      <point x="438" y="40" type="line"/>
      <point x="622" y="368" type="line"/>
      <point x="622" y="0" type="line"/>
      <point x="816" y="0" type="line"/>
      <point x="816" y="687" type="line"/>
      <point x="622" y="687" type="line"/>
      <point x="438" y="359" type="line"/>
      <point x="254" y="687" type="line"/>
      <point x="60" y="687" type="line"/>
      <point x="60" y="0" type="line"/>
    </contour>
  </outline>
</glyph>
<glyph name="N" format="1">
  <advance width="776"/>
  <unicode hex="004E"/>
  <outline>
    <contour>
      <point x="254" y="0" type="line"/>
      <point x="254" y="368" type="line"/>
      <point x="522" y="0" type="line"/>
      <point x="716" y="0" type="line"/>
      <point x="716" y="687" type="line"/>
      <point x="522" y="687" type="line"/>
      <point x="522" y="319" type="line"/>
      <point x="254" y="687" type="line"/>
      <point x="60" y="687" type="line"/>
      <point x="60" y="0" type="line"/>
    </contour>
  </outline>
</glyph>
<glyph name="O" format="1">
  <advance width="815"/>
  <unicode hex="004F"/>
  <outline>
    <contour>
      <point x="611" y="-12"/>
      <point x="782" y="151"/>
      <point x="782" y="344" type="curve" smooth="yes"/>
      <point x="782" y="537"/>
      <point x="611" y="699"/>
      <point x="408" y="699" type="curve" smooth="yes"/>
      <point x="205" y="699"/>
      <point x="34" y="537"/>
      <point x="34" y="344" type="curve" smooth="yes"/>
      <point x="34" y="151"/>
      <point x="205" y="-12"/>
      <point x="408" y="-12" type="curve" smooth="yes"/>
    </contour>
    <contour>
      <point x="314" y="164"/>
      <point x="234" y="246"/>
      <point x="234" y="344" type="curve" smooth="yes"/>
      <point x="234" y="441"/>
      <point x="314" y="523"/>
      <point x="408" y="523" type="curve" smooth="yes"/>
      <point x="502" y="523"/>
      <point x="582" y="441"/>
      <point x="582" y="344" type="curve" smooth="yes"/>
      <point x="582" y="246"/>
      <point x="502" y="164"/>
      <point x="408" y="164" type="curve" smooth="yes"/>
    </contour>
    <contour>
      <point x="408" y="687" type="move" name="top"/>
    </contour>
  </outline>
</glyph>
<glyph name="Q" format="1">
  <advance width="815"/>
  <unicode hex="0051"/>
  <outline>
    <contour>
      <point x="780" y="106" type="line"/>
      <point x="511" y="340" type="line"/>
      <point x="420" y="234" type="line"/>
      <point x="689" y="0" type="line"/>
    </contour>
    <component base="O"/>
  </outline>
</glyph>
<glyph name="R" format="1">
  <advance width="697"/>
  <unicode hex="0052"/>
  <outline>
    <contour>
      <point x="680" y="0" type="line"/>
      <point x="491" y="269" type="line"/>
      <point x="270" y="269" type="line"/>
      <point x="459" y="0" type="line"/>
    </contour>
    <component base="P"/>
  </outline>
</glyph>
<glyph name="T" format="1">
  <advance width="645"/>
  <unicode hex="0054"/>
  <outline>
    <contour>
      <point x="420" y="0" type="line"/>
      <point x="420" y="514" type="line"/>
      <point x="623" y="514" type="line"/>
      <point x="623" y="687" type="line"/>
      <point x="23" y="687" type="line"/>
      <point x="23" y="514" type="line"/>
      <point x="226" y="514" type="line"/>
      <point x="226" y="0" type="line"/>
    </contour>
    <contour>
      <point x="323" y="687" type="move" name="top"/>
    </contour>
    <contour>
      <point x="320" y="0" type="move" name="bottom"/>
    </contour>
  </outline>
</glyph>
<glyph name="U" format="1">
  <advance width="761"/>
  <unicode hex="0055"/>
  <outline>
    <contour>
      <point x="573" y="-12"/>
      <point x="708" y="119"/>
      <point x="708" y="305" type="curve"/>
      <point x="708" y="687" type="line"/>
      <point x="514" y="687" type="line"/>
      <point x="514" y="315" type="line"/>
      <point x="514" y="227"/>
      <point x="459" y="164"/>
      <point x="381" y="164" type="curve"/>
      <point x="303" y="164"/>
      <point x="248" y="227"/>
      <point x="248" y="315" type="curve"/>
      <point x="248" y="687" type="line"/>
      <point x="54" y="687" type="line"/>
      <point x="54" y="305" type="line"/>
      <point x="54" y="119"/>
      <point x="189" y="-12"/>
      <point x="381" y="-12" type="curve"/>
    </contour>
    <contour>
      <point x="381" y="687" type="move" name="top"/>
    </contour>
  </outline>
</glyph>
<glyph name="V" format="1">
  <advance width="749"/>
  <unicode hex="0056"/>
  <outline>
    <contour>
      <point x="484" y="0" type="line"/>
      <point x="748" y="687" type="line"/>
      <point x="529" y="687" type="line"/>
      <point x="265" y="0" type="line"/>
    </contour>
    <contour>
      <point x="484" y="0" type="line"/>
      <point x="220" y="687" type="line"/>
      <point x="1" y="687" type="line"/>
      <point x="265" y="0" type="line"/>
    </contour>
  </outline>
</glyph>
<glyph name="W" format="1">
  <advance width="1076"/>
  <unicode hex="0057"/>
  <outline>
    <contour>
      <point x="395" y="0" type="line"/>
      <point x="539" y="397" type="line"/>
      <point x="682" y="0" type="line"/>
      <point x="878" y="0" type="line"/>
      <point x="1068" y="687" type="line"/>
      <point x="859" y="687" type="line"/>
      <point x="775" y="290" type="line"/>
      <point x="643" y="687" type="line"/>
      <point x="434" y="687" type="line"/>
      <point x="301" y="290" type="line"/>
      <point x="217" y="687" type="line"/>
      <point x="8" y="687" type="line"/>
      <point x="199" y="0" type="line"/>
    </contour>
    <contour>
      <point x="539" y="687" type="move" name="top"/>
    </contour>
  </outline>
</glyph>
<glyph name="Z" format="1">
  <advance width="675"/>
  <unicode hex="005A"/>
  <outline>
    <contour>
      <point x="637" y="0" type="line"/>
      <point x="637" y="173" type="line"/>
      <point x="308" y="173" type="line"/>
      <point x="632" y="542" type="line"/>
      <point x="632" y="687" type="line"/>
      <point x="48" y="687" type="line"/>
      <point x="48" y="514" type="line"/>
      <point x="366" y="514" type="line"/>
      <point x="40" y="145" type="line"/>
      <point x="41" y="0" type="line"/>
    </contour>
    <contour>
      <point x="343" y="687" type="move" name="top"/>
    </contour>
  </outline>
</glyph>
<glyph name="backslash" format="1">
  <advance width="493"/>
  <unicode hex="005C"/>
  <outline>
    <contour>
      <point x="522" y="-74" type="line"/>
      <point x="182" y="743" type="line"/>
      <point x="-18" y="743" type="line"/>
      <point x="322" y="-74" type="line"/>
    </contour>
  </outline>
</glyph>
<glyph name="grave" format="1">
  <advance width="404"/>
  <unicode hex="0060"/>
  <outline>
    <contour>
      <point x="341" y="574" type="line"/>
      <point x="229" y="738" type="line"/>
      <point x="63" y="710" type="line"/>
      <point x="215" y="574" type="line"/>
    </contour>
    <contour>
      <point x="232" y="704" type="move" name="top"/>
    </contour>
    <contour>
      <point x="232" y="517" type="move" name="_top"/>
    </contour>
  </outline>
</glyph>
<glyph name="a" format="1">
  <advance width="587"/>
  <unicode hex="0061"/>
  <outline>
    <contour>
      <point x="540" y="0" type="line"/>
      <point x="540" y="305" type="line" smooth="yes"/>
      <point x="540" y="446"/>
      <point x="432" y="529"/>
      <point x="301" y="529" type="curve" smooth="yes"/>
      <point x="214" y="529"/>
      <point x="137" y="504"/>
      <point x="65" y="468" type="curve"/>
      <point x="124" y="351" type="line"/>
      <point x="167" y="373"/>
      <point x="200" y="386"/>
      <point x="249" y="386" type="curve" smooth="yes"/>
      <point x="309" y="386"/>
      <point x="355" y="356"/>
      <point x="355" y="305" type="curve" smooth="yes"/>
      <point x="355" y="0" type="line"/>
    </contour>
    <contour>
      <point x="302" y="-12"/>
      <point x="381" y="34"/>
      <point x="401" y="113" type="curve"/>
      <point x="355" y="153" type="line"/>
      <point x="351" y="123"/>
      <point x="315" y="102"/>
      <point x="269" y="102" type="curve" smooth="yes"/>
      <point x="232" y="102"/>
      <point x="206" y="125"/>
      <point x="206" y="158" type="curve" smooth="yes"/>
      <point x="206" y="193"/>
      <point x="234" y="218"/>
      <point x="273" y="218" type="curve" smooth="yes"/>
      <point x="304" y="218"/>
      <point x="338" y="211"/>
      <point x="356" y="201" type="curve"/>
      <point x="407" y="274" type="line"/>
      <point x="356" y="308"/>
      <point x="296" y="325"/>
      <point x="246" y="325" type="curve" smooth="yes"/>
      <point x="121" y="325"/>
      <point x="23" y="254"/>
      <point x="23" y="153" type="curve" smooth="yes"/>
      <point x="23" y="56"/>
      <point x="111" y="-12"/>
      <point x="222" y="-12" type="curve" smooth="yes"/>
    </contour>
    <contour>
      <point x="540" y="0" type="move" name="onogek"/>
    </contour>
    <contour>
      <point x="305" y="0" type="move" name="bottom"/>
    </contour>
    <contour>
      <point x="305" y="517" type="move" name="top"/>
    </contour>
  </outline>
</glyph>
<glyph name="b" format="1">
  <advance width="674"/>
  <unicode hex="0062"/>
  <outline>
    <contour>
      <point x="244" y="1" type="line"/>
      <point x="244" y="699" type="line"/>
      <point x="51" y="699" type="line"/>
      <point x="51" y="1" type="line"/>
    </contour>
    <component base="lowercase_loop" xOffset="49"/>
  </outline>
</glyph>
<glyph name="c" format="1">
  <advance width="552"/>
  <unicode hex="0063"/>
  <outline>
    <contour>
      <point x="409" y="-12"/>
      <point x="483" y="18"/>
      <point x="538" y="67" type="curve"/>
      <point x="405" y="183" type="line"/>
      <point x="384" y="161"/>
      <point x="355" y="148"/>
      <point x="324" y="148" type="curve" smooth="yes"/>
      <point x="262" y="148"/>
      <point x="211" y="198"/>
      <point x="211" y="259" type="curve" smooth="yes"/>
      <point x="211" y="319"/>
      <point x="262" y="369"/>
      <point x="324" y="369" type="curve" smooth="yes"/>
      <point x="354" y="369"/>
      <point x="383" y="356"/>
      <point x="403" y="337" type="curve"/>
      <point x="535" y="453" type="line"/>
      <point x="480" y="500"/>
      <point x="407" y="529"/>
      <point x="328" y="529" type="curve" smooth="yes"/>
      <point x="165" y="529"/>
      <point x="27" y="406"/>
      <point x="27" y="259" type="curve" smooth="yes"/>
      <point x="27" y="112"/>
      <point x="165" y="-12"/>
      <point x="328" y="-12" type="curve" smooth="yes"/>
    </contour>
  </outline>
</glyph>
<glyph name="d" format="1">
  <advance width="674"/>
  <unicode hex="0064"/>
  <outline>
    <contour>
      <point x="623" y="1" type="line"/>
      <point x="623" y="699" type="line"/>
      <point x="430" y="699" type="line"/>
      <point x="430" y="1" type="line"/>
    </contour>
    <component base="lowercase_loop" xOffset="625" xScale="-1"/>
  </outline>
</glyph>
<glyph name="e" format="1">
  <advance width="590"/>
  <unicode hex="0065"/>
  <outline>
    <contour>
      <point x="387" y="-12"/>
      <point x="475" y="21"/>
      <point x="521" y="68" type="curve"/>
      <point x="417" y="167" type="line"/>
      <point x="386" y="142"/>
      <point x="342" y="127"/>
      <point x="300" y="127" type="curve" smooth="yes"/>
      <point x="236" y="127"/>
      <point x="192" y="182"/>
      <point x="192" y="259" type="curve" smooth="yes"/>
      <point x="192" y="336"/>
      <point x="237" y="390"/>
      <point x="300" y="390" type="curve" smooth="yes"/>
      <point x="356" y="390"/>
      <point x="396" y="338"/>
      <point x="396" y="265" type="curve"/>
      <point x="438" y="314" type="line"/>
      <point x="81" y="314" type="line"/>
      <point x="81" y="213" type="line"/>
      <point x="564" y="213" type="line"/>
      <point x="564" y="412"/>
      <point x="466" y="529"/>
      <point x="300" y="529" type="curve" smooth="yes"/>
      <point x="140" y="529"/>
      <point x="27" y="418"/>
      <point x="27" y="260" type="curve" smooth="yes"/>
      <point x="27" y="101"/>
      <point x="143" y="-12"/>
      <point x="308" y="-12" type="curve" smooth="yes"/>
    </contour>
    <contour>
      <point x="300" y="517" type="move" name="top"/>
    </contour>
  </outline>
</glyph>
<glyph name="f" format="1">
  <advance width="398"/>
  <unicode hex="0066"/>
  <outline>
    <contour>
      <point x="267" y="0" type="line"/>
      <point x="267" y="517" type="line" smooth="yes"/>
      <point x="267" y="548"/>
      <point x="285" y="570"/>
      <point x="311" y="570" type="curve" smooth="yes"/>
      <point x="329" y="570"/>
      <point x="348" y="564"/>
      <point x="358" y="555" type="curve"/>
      <point x="391" y="667" type="line"/>
      <point x="359" y="698"/>
      <point x="304" y="720"/>
      <point x="258" y="720" type="curve" smooth="yes"/>
      <point x="155" y="720"/>
      <point x="83" y="648"/>
      <point x="83" y="545" type="curve" smooth="yes"/>
      <point x="83" y="0" type="line"/>
    </contour>
    <contour>
      <point x="369" y="365" type="line"/>
      <point x="369" y="517" type="line"/>
      <point x="18" y="517" type="line"/>
      <point x="18" y="365" type="line"/>
    </contour>
  </outline>
</glyph>
<glyph name="g" format="1">
  <advance width="657"/>
  <unicode hex="0067"/>
  <outline>
    <contour>
      <point x="412" y="65" type="line" smooth="yes"/>
      <point x="412" y="21"/>
      <point x="358" y="-12"/>
      <point x="281" y="-12" type="curve" smooth="yes"/>
      <point x="224" y="-12"/>
      <point x="164" y="5"/>
      <point x="134" y="30" type="curve"/>
      <point x="71" y="-103" type="line"/>
      <point x="126" y="-143"/>
      <point x="216" y="-172"/>
      <point x="312" y="-172" type="curve" smooth="yes"/>
      <point x="484" y="-172"/>
      <point x="606" y="-78"/>
      <point x="606" y="55" type="curve" smooth="yes"/>
      <point x="606" y="517" type="line"/>
      <point x="412" y="517" type="line"/>
    </contour>
    <contour>
      <point x="265" y="198"/>
      <point x="226" y="234"/>
      <point x="226" y="284" type="curve" smooth="yes"/>
      <point x="226" y="334"/>
      <point x="265" y="369"/>
      <point x="319" y="369" type="curve" smooth="yes"/>
      <point x="373" y="369"/>
      <point x="412" y="334"/>
      <point x="412" y="284" type="curve" smooth="yes"/>
      <point x="412" y="234"/>
      <point x="373" y="198"/>
      <point x="319" y="198" type="curve" smooth="yes"/>
    </contour>
    <contour>
      <point x="425" y="439" type="line"/>
      <point x="402" y="489"/>
      <point x="324" y="529"/>
      <point x="252" y="529" type="curve" smooth="yes"/>
      <point x="127" y="529"/>
      <point x="28" y="428"/>
      <point x="28" y="284" type="curve" smooth="yes"/>
      <point x="28" y="140"/>
      <point x="127" y="38"/>
      <point x="252" y="38" type="curve" smooth="yes"/>
      <point x="322" y="38"/>
      <point x="391" y="72"/>
      <point x="431" y="129" type="curve"/>
    </contour>
    <contour>
      <point x="345" y="517" type="move" name="top"/>
    </contour>
    <contour>
      <point x="312" y="-172" type="move" name="bottom"/>
    </contour>
  </outline>
</glyph>
<glyph name="k" format="1">
  <advance width="582"/>
  <unicode hex="006B"/>
  <outline>
    <contour>
      <point x="236" y="0" type="line"/>
      <point x="236" y="119" type="line"/>
      <point x="278" y="171" type="line"/>
      <point x="373" y="0" type="line"/>
      <point x="589" y="0" type="line"/>
      <point x="404" y="294" type="line"/>
      <point x="585" y="517" type="line"/>
      <point x="369" y="517" type="line"/>
      <point x="236" y="336" type="line"/>
      <point x="236" y="699" type="line"/>
      <point x="51" y="699" type="line"/>
      <point x="51" y="0" type="line"/>
    </contour>
  </outline>
</glyph>
<glyph name="l" format="1">
  <advance width="303"/>
  <unicode hex="006C"/>
  <outline>
    <contour>
      <point x="248" y="0" type="line"/>
      <point x="248" y="699" type="line"/>
      <point x="55" y="699" type="line"/>
      <point x="55" y="0" type="line"/>
    </contour>
    <contour>
      <point x="204" y="699" type="move" name="top"/>
    </contour>
    <contour>
      <point x="248" y="0" type="move" name="bottom"/>
    </contour>
  </outline>
</glyph>
<glyph name="n" format="1">
  <advance width="628"/>
  <unicode hex="006E"/>
  <outline>
    <contour>
      <point x="244" y="0" type="line"/>
      <point x="244" y="517" type="line"/>
      <point x="51" y="517" type="line"/>
      <point x="51" y="0" type="line"/>
    </contour>
    <component base="lowercase_nh_shoulder" xOffset="31"/>
    <contour>
      <point x="323" y="517" type="move" name="top"/>
    </contour>
    <contour>
      <point x="323" y="0" type="move" name="bottom"/>
    </contour>
  </outline>
</glyph>
<glyph name="p" format="1">
  <advance width="674"/>
  <unicode hex="0070"/>
  <outline>
    <contour>
      <point x="244" y="-172" type="line"/>
      <point x="244" y="517" type="line"/>
      <point x="51" y="517" type="line"/>
      <point x="51" y="-172" type="line"/>
    </contour>
    <component base="lowercase_loop" xOffset="49"/>
  </outline>
</glyph>
<glyph name="q" format="1">
  <advance width="674"/>
  <unicode hex="0071"/>
  <outline>
    <contour>
      <point x="623" y="-172" type="line"/>
      <point x="623" y="517" type="line"/>
      <point x="430" y="517" type="line"/>
      <point x="430" y="-172" type="line"/>
    </contour>
    <component base="lowercase_loop" xOffset="625" xScale="-1"/>
  </outline>
</glyph>
<glyph name="r" format="1">
  <advance width="421"/>
  <unicode hex="0072"/>
  <outline>
    <contour>
      <point x="244" y="313"/>
      <point x="304" y="369"/>
      <point x="406" y="369" type="curve"/>
      <point x="406" y="529" type="line"/>
      <point x="292" y="529"/>
      <point x="211" y="425"/>
      <point x="211" y="279" type="curve"/>
      <point x="244" y="219" type="line"/>
    </contour>
    <contour>
      <point x="244" y="0" type="line"/>
      <point x="244" y="517" type="line"/>
      <point x="51" y="517" type="line"/>
      <point x="51" y="0" type="line"/>
    </contour>
  </outline>
</glyph>
<glyph name="s" format="1">
  <advance width="506"/>
  <unicode hex="0073"/>
  <outline>
    <contour>
      <point x="397" y="-12"/>
      <point x="482" y="56"/>
      <point x="482" y="163" type="curve" smooth="yes"/>
      <point x="482" y="285"/>
      <point x="374" y="316"/>
      <point x="280" y="337" type="curve" smooth="yes"/>
      <point x="228" y="349"/>
      <point x="205" y="352"/>
      <point x="205" y="369" type="curve" smooth="yes"/>
      <point x="205" y="384"/>
      <point x="223" y="398"/>
      <point x="250" y="398" type="curve" smooth="yes"/>
      <point x="299" y="398"/>
      <point x="358" y="371"/>
      <point x="401" y="343" type="curve"/>
      <point x="466" y="461" type="line"/>
      <point x="407" y="500"/>
      <point x="330" y="529"/>
      <point x="250" y="529" type="curve" smooth="yes"/>
      <point x="115" y="529"/>
      <point x="34" y="451"/>
      <point x="34" y="351" type="curve" smooth="yes"/>
      <point x="34" y="229"/>
      <point x="139" y="206"/>
      <point x="233" y="186" type="curve" smooth="yes"/>
      <point x="281" y="176"/>
      <point x="311" y="166"/>
      <point x="311" y="148" type="curve" smooth="yes"/>
      <point x="311" y="131"/>
      <point x="298" y="122"/>
      <point x="262" y="122" type="curve" smooth="yes"/>
      <point x="207" y="122"/>
      <point x="133" y="148"/>
      <point x="83" y="183" type="curve"/>
      <point x="11" y="66" type="line"/>
      <point x="74" y="17"/>
      <point x="167" y="-12"/>
      <point x="257" y="-12" type="curve" smooth="yes"/>
    </contour>
    <contour>
      <point x="250" y="517" type="move" name="top"/>
    </contour>
    <contour>
      <point x="251" y="0" type="move" name="bottom"/>
    </contour>
  </outline>
</glyph>
<glyph name="u" format="1">
  <advance width="628"/>
  <unicode hex="0075"/>
  <outline>
    <component base="n" xOffset="628" yOffset="517" xScale="-1" yScale="-1"/>
    <contour>
      <point x="312" y="517" type="move" name="top"/>
    </contour>
  </outline>
</glyph>
<glyph name="x" format="1">
  <advance width="576"/>
  <unicode hex="0078"/>
  <outline>
    <contour>
      <point x="573" y="0" type="line"/>
      <point x="216" y="517" type="line"/>
      <point x="12" y="517" type="line"/>
      <point x="369" y="0" type="line"/>
    </contour>
    <contour>
      <point x="202" y="0" type="line"/>
      <point x="563" y="517" type="line"/>
      <point x="364" y="517" type="line"/>
      <point x="3" y="0" type="line"/>
    </contour>
  </outline>
</glyph>
<glyph name="z" format="1">
  <advance width="544"/>
  <unicode hex="007A"/>
  <outline>
    <contour>
      <point x="514" y="0" type="line"/>
      <point x="514" y="160" type="line"/>
      <point x="282" y="160" type="line"/>
      <point x="511" y="384" type="line"/>
      <point x="512" y="517" type="line"/>
      <point x="40" y="517" type="line"/>
      <point x="40" y="357" type="line"/>
      <point x="262" y="357" type="line"/>
      <point x="33" y="133" type="line"/>
      <point x="33" y="0" type="line"/>
    </contour>
  </outline>
</glyph>
<glyph name="braceleft" format="1">
  <advance width="415"/>
  <unicode hex="007B"/>
  <outline>
    <contour>
      <point x="387" y="-53" type="line"/>
      <point x="288" y="-41"/>
      <point x="265" y="-25"/>
      <point x="265" y="39" type="curve" smooth="yes"/>
      <point x="266" y="153" type="line" smooth="yes"/>
      <point x="266" y="211"/>
      <point x="240" y="249"/>
      <point x="187" y="266" type="curve"/>
      <point x="240" y="283"/>
      <point x="266" y="321"/>
      <point x="266" y="378" type="curve" smooth="yes"/>
      <point x="265" y="493" type="line" smooth="yes"/>
      <point x="265" y="556"/>
      <point x="286" y="572"/>
      <point x="387" y="584" type="curve"/>
      <point x="372" y="697" type="line"/>
      <point x="191" y="685"/>
      <point x="118" y="629"/>
      <point x="118" y="508" type="curve" smooth="yes"/>
      <point x="120" y="402" type="line" smooth="yes"/>
      <point x="120" y="345"/>
      <point x="94" y="321"/>
      <point x="26" y="321" type="curve"/>
      <point x="26" y="211" type="line"/>
      <point x="92" y="211"/>
      <point x="120" y="187"/>
      <point x="120" y="130" type="curve" smooth="yes"/>
      <point x="118" y="23" type="line" smooth="yes"/>
      <point x="118" y="-97"/>
      <point x="190" y="-154"/>
      <point x="372" y="-166" type="curve"/>
    </contour>
  </outline>
</glyph>
<glyph name="bar" format="1">
  <advance width="313"/>
  <unicode hex="007C"/>
  <outline>
    <contour>
      <point x="221" y="-74" type="line"/>
      <point x="221" y="743" type="line"/>
      <point x="92" y="743" type="line"/>
      <point x="92" y="-74" type="line"/>
    </contour>
  </outline>
</glyph>
<glyph name="braceright" format="1">
  <advance width="415"/>
  <unicode hex="007D"/>
  <outline>
    <contour>
      <point x="225" y="-154"/>
      <point x="297" y="-97"/>
      <point x="297" y="23" type="curve"/>
      <point x="295" y="130" type="line"/>
      <point x="295" y="187"/>
      <point x="323" y="211"/>
      <point x="389" y="211" type="curve"/>
      <point x="389" y="321" type="line"/>
      <point x="321" y="321"/>
      <point x="295" y="345"/>
      <point x="295" y="402" type="curve" smooth="yes"/>
      <point x="297" y="508" type="line" smooth="yes"/>
      <point x="297" y="629"/>
      <point x="224" y="685"/>
      <point x="43" y="697" type="curve"/>
      <point x="28" y="584" type="line"/>
      <point x="129" y="572"/>
      <point x="150" y="556"/>
      <point x="150" y="493" type="curve" smooth="yes"/>
      <point x="149" y="378" type="line" smooth="yes"/>
      <point x="149" y="321"/>
      <point x="175" y="283"/>
      <point x="228" y="266" type="curve"/>
      <point x="175" y="249"/>
      <point x="149" y="211"/>
      <point x="149" y="153" type="curve" smooth="yes"/>
      <point x="150" y="39" type="line" smooth="yes"/>
      <point x="150" y="-25"/>
      <point x="127" y="-41"/>
      <point x="28" y="-53" type="curve"/>
      <point x="43" y="-166" type="line"/>
    </contour>
  </outline>
</glyph>
<glyph name="asciitilde" format="1">
  <advance width="457"/>
  <unicode hex="007E"/>
  <outline>
    <component base="tilde" xOffset="9" yOffset="-281"/>
    <contour>
      <point x="229" y="414" type="move" name="top"/>
    </contour>
    <contour>
      <point x="229" y="227" type="move" name="_top"/>
    </contour>
  </outline>
</glyph>
<glyph name="cent" format="1">
  <advance width="552"/>
  <unicode hex="00A2"/>
  <outline>
    <contour>
      <point x="363" y="-74" type="line"/>
      <point x="363" y="589" type="line"/>
      <point x="253" y="589" type="line"/>
      <point x="253" y="-74" type="line"/>
    </contour>
    <component base="c"/>
  </outline>
</glyph>
<glyph name="dieresis" format="1">
  <advance width="524"/>
  <unicode hex="00A8"/>
  <outline>
    <contour>
      <point x="197" y="575"/>
      <point x="236" y="614"/>
      <point x="236" y="662" type="curve" smooth="yes"/>
      <point x="236" y="708"/>
      <point x="197" y="748"/>
      <point x="150" y="748" type="curve" smooth="yes"/>
      <point x="100" y="748"/>
      <point x="63" y="708"/>
      <point x="63" y="662" type="curve" smooth="yes"/>
      <point x="63" y="614"/>
      <point x="100" y="575"/>
      <point x="150" y="575" type="curve" smooth="yes"/>
    </contour>
    <contour>
      <point x="423" y="575"/>
      <point x="461" y="614"/>
      <point x="461" y="662" type="curve" smooth="yes"/>
      <point x="461" y="708"/>
      <point x="423" y="748"/>
      <point x="375" y="748" type="curve" smooth="yes"/>
      <point x="326" y="748"/>
      <point x="288" y="708"/>
      <point x="288" y="662" type="curve" smooth="yes"/>
      <point x="288" y="614"/>
      <point x="326" y="575"/>
      <point x="375" y="575" type="curve" smooth="yes"/>
    </contour>
    <contour>
      <point x="262" y="704" type="move" name="top"/>
    </contour>
    <contour>
      <point x="262" y="517" type="move" name="_top"/>
    </contour>
  </outline>
</glyph>
<glyph name="macron" format="1">
  <advance width="495"/>
  <unicode hex="00AF"/>
  <outline>
    <contour>
      <point x="432" y="573" type="line"/>
      <point x="432" y="679" type="line"/>
      <point x="63" y="679" type="line"/>
      <point x="63" y="573" type="line"/>
    </contour>
    <contour>
      <point x="248" y="704" type="move" name="top"/>
    </contour>
    <contour>
      <point x="248" y="517" type="move" name="_top"/>
    </contour>
  </outline>
</glyph>
<glyph name="periodcentered" format="1">
  <advance width="284"/>
  <unicode hex="00B7"/>
  <outline>
    <contour>
      <point x="198" y="177"/>
      <point x="244" y="222"/>
      <point x="244" y="279" type="curve" smooth="yes"/>
      <point x="244" y="335"/>
      <point x="198" y="381"/>
      <point x="142" y="381" type="curve" smooth="yes"/>
      <point x="85" y="381"/>
      <point x="40" y="335"/>
      <point x="40" y="279" type="curve" smooth="yes"/>
      <point x="40" y="222"/>
      <point x="85" y="177"/>
      <point x="142" y="177" type="curve" smooth="yes"/>
    </contour>
  </outline>
</glyph>
<glyph name="Eth" format="1">
  <advance width="818"/>
  <unicode hex="00D0"/>
  <outline>
    <contour>
      <point x="438" y="258" type="line"/>
      <point x="439" y="431" type="line"/>
      <point x="40" y="431" type="line"/>
      <point x="40" y="258" type="line"/>
    </contour>
    <component base="D" xOffset="58"/>
  </outline>
</glyph>
<glyph name="multiply" format="1">
  <advance width="574"/>
  <unicode hex="00D7"/>
  <outline>
    <contour>
      <point x="516" y="457" type="line"/>
      <point x="410" y="563" type="line"/>
      <point x="57" y="210" type="line"/>
      <point x="163" y="104" type="line"/>
    </contour>
    <contour>
      <point x="520" y="214" type="line"/>
      <point x="167" y="567" type="line"/>
      <point x="54" y="454" type="line"/>
      <point x="407" y="101" type="line"/>
    </contour>
  </outline>
</glyph>
<glyph name="germandbls" format="1">
  <advance width="638"/>
  <unicode hex="00DF"/>
  <outline>
    <contour>
      <point x="244" y="0" type="line"/>
      <point x="244" y="463" type="line" smooth="yes"/>
      <point x="244" y="502"/>
      <point x="274" y="524"/>
      <point x="314" y="524" type="curve" smooth="yes"/>
      <point x="357" y="524"/>
      <point x="383" y="502"/>
      <point x="383" y="472" type="curve" smooth="yes"/>
      <point x="383" y="442"/>
      <point x="354" y="420"/>
      <point x="314" y="420" type="curve" smooth="yes"/>
      <point x="313" y="420" type="line"/>
      <point x="313" y="273" type="line"/>
      <point x="343" y="273" type="line" smooth="yes"/>
      <point x="385" y="273"/>
      <point x="415" y="250"/>
      <point x="415" y="218" type="curve" smooth="yes"/>
      <point x="415" y="186"/>
      <point x="385" y="163"/>
      <point x="343" y="163" type="curve" smooth="yes"/>
      <point x="313" y="163" type="line"/>
      <point x="313" y="0" type="line"/>
      <point x="375" y="0" type="line" smooth="yes"/>
      <point x="515" y="0"/>
      <point x="615" y="75"/>
      <point x="615" y="185" type="curve" smooth="yes"/>
      <point x="615" y="261"/>
      <point x="568" y="326"/>
      <point x="488" y="360" type="curve"/>
      <point x="548" y="389"/>
      <point x="583" y="447"/>
      <point x="583" y="514" type="curve" smooth="yes"/>
      <point x="583" y="637"/>
      <point x="473" y="724"/>
      <point x="317" y="724" type="curve" smooth="yes"/>
      <point x="161" y="724"/>
      <point x="51" y="637"/>
      <point x="51" y="514" type="curve" smooth="yes"/>
      <point x="51" y="0" type="line"/>
    </contour>
  </outline>
</glyph>
<glyph name="ae" format="1">
  <advance width="918"/>
  <unicode hex="00E6"/>
  <outline>
    <contour>
      <point x="402" y="-12"/>
      <point x="490" y="62"/>
      <point x="490" y="188" type="curve"/>
      <point x="490" y="345" type="line" smooth="yes"/>
      <point x="490" y="453"/>
      <point x="403" y="529"/>
      <point x="281" y="529" type="curve" smooth="yes"/>
      <point x="194" y="529"/>
      <point x="137" y="504"/>
      <point x="65" y="468" type="curve"/>
      <point x="126" y="347" type="line"/>
      <point x="164" y="366"/>
      <point x="204" y="376"/>
      <point x="249" y="376" type="curve" smooth="yes"/>
      <point x="316" y="376"/>
      <point x="355" y="350"/>
      <point x="355" y="305" type="curve" smooth="yes"/>
      <point x="355" y="163" type="line"/>
      <point x="355" y="131"/>
      <point x="323" y="112"/>
      <point x="269" y="112" type="curve" smooth="yes"/>
      <point x="234" y="112"/>
      <point x="210" y="131"/>
      <point x="210" y="158" type="curve" smooth="yes"/>
      <point x="210" y="187"/>
      <point x="236" y="208"/>
      <point x="273" y="208" type="curve" smooth="yes"/>
      <point x="303" y="208"/>
      <point x="333" y="201"/>
      <point x="356" y="188" type="curve"/>
      <point x="407" y="274" type="line"/>
      <point x="356" y="308"/>
      <point x="296" y="325"/>
      <point x="246" y="325" type="curve" smooth="yes"/>
      <point x="121" y="325"/>
      <point x="23" y="254"/>
      <point x="23" y="153" type="curve" smooth="yes"/>
      <point x="23" y="56"/>
      <point x="118" y="-12"/>
      <point x="252" y="-12" type="curve" smooth="yes"/>
    </contour>
    <component base="e" xOffset="328"/>
  </outline>
</glyph>
<glyph name="dcaron" format="1">
  <advance width="970"/>
  <unicode hex="010F"/>
  <outline>
    <component base="d"/>
    <component base="comma" xOffset="641" yOffset="480"/>
    <contour>
      <point x="182" y="704" type="move" name="top"/>
    </contour>
    <contour>
      <point x="182" y="517" type="move" name="_top"/>
    </contour>
  </outline>
</glyph>
<glyph name="jdotless" format="1">
  <advance width="304"/>
  <unicode hex="0237"/>
  <outline>
    <contour>
      <point x="172" y="-178"/>
      <point x="248" y="-102"/>
      <point x="248" y="6" type="curve" smooth="yes"/>
      <point x="248" y="517" type="line"/>
      <point x="55" y="517" type="line"/>
      <point x="55" y="30" type="line" smooth="yes"/>
      <point x="55" y="-1"/>
      <point x="37" y="-23"/>
      <point x="11" y="-23" type="curve" smooth="yes"/>
      <point x="-5" y="-23"/>
      <point x="-24" y="-20"/>
      <point x="-36" y="-15" type="curve"/>
      <point x="-54" y="-154" type="line"/>
      <point x="-26" y="-168"/>
      <point x="23" y="-178"/>
      <point x="64" y="-178" type="curve" smooth="yes"/>
    </contour>
  </outline>
</glyph>
<glyph name="breve" format="1">
  <advance width="468"/>
  <unicode hex="02D8"/>
  <outline>
    <contour>
      <point x="296" y="575"/>
      <point x="358" y="599"/>
      <point x="405" y="646" type="curve"/>
      <point x="331" y="720" type="line"/>
      <point x="304" y="693"/>
      <point x="268" y="677"/>
      <point x="234" y="677" type="curve" smooth="yes"/>
      <point x="200" y="677"/>
      <point x="164" y="693"/>
      <point x="137" y="720" type="curve"/>
      <point x="63" y="646" type="line"/>
      <point x="111" y="599"/>
      <point x="172" y="575"/>
      <point x="234" y="575" type="curve" smooth="yes"/>
    </contour>
    <contour>
      <point x="234" y="704" type="move" name="top"/>
    </contour>
    <contour>
      <point x="234" y="517" type="move" name="_top"/>
    </contour>
  </outline>
</glyph>
<glyph name="endash" format="1">
  <advance width="567"/>
  <unicode hex="2013"/>
  <outline>
    <contour>
      <point x="529" y="200" type="line"/>
      <point x="529" y="356" type="line"/>
      <point x="38" y="356" type="line"/>
      <point x="38" y="200" type="line"/>
    </contour>
  </outline>
</glyph>
<glyph name="guilsinglleft" format="1">
  <advance width="369"/>
  <unicode hex="2039"/>
  <outline>
    <contour>
      <point x="339" y="79" type="line"/>
      <point x="200" y="256" type="line"/>
      <point x="339" y="432" type="line"/>
      <point x="197" y="462" type="line"/>
      <point x="30" y="256" type="line"/>
      <point x="197" y="48" type="line"/>
    </contour>
  </outline>
</glyph>
